<svg
width="12"
height="17"
viewBox="0 0 12 17"
fill="none"
xmlns="http://www.w3.org/2000/svg"
>
<path
    d="M10.375 0.5H1.625C1.29348 0.5 0.975537 0.631696 0.741116 0.866116C0.506696 1.10054 0.375 1.41848 0.375 1.75V15.5C0.375598 15.6113 0.405523 15.7204 0.46176 15.8164C0.517996 15.9124 0.598555 15.9919 0.695312 16.0469C0.788005 16.0998 0.893261 16.1268 1 16.125C1.11601 16.1252 1.22973 16.0927 1.32812 16.0312L6 13.1094L10.6641 16.0312C10.7603 16.0891 10.87 16.121 10.9823 16.1237C11.0946 16.1265 11.2057 16.1 11.3047 16.0469C11.4014 15.9919 11.482 15.9124 11.5382 15.8164C11.5945 15.7204 11.6244 15.6113 11.625 15.5V1.75C11.625 1.41848 11.4933 1.10054 11.2589 0.866116C11.0245 0.631696 10.7065 0.5 10.375 0.5ZM6.32812 11.8438C6.2294 11.783 6.1159 11.7506 6 11.75C5.88151 11.7496 5.76522 11.782 5.66406 11.8438L1.625 14.375V12.0938L6 9.35938L10.375 12.0938V14.375L6.32812 11.8438Z"
    fill="white"></path>
</svg>