<svg
width="20"
height="16"
viewBox="0 0 20 16"
fill="none"
xmlns="http://www.w3.org/2000/svg"
>
<path
    d="M19.3203 11.2658L16.664 2.42202C16.613 2.24315 16.5216 2.07834 16.3971 1.94021C16.2725 1.80209 16.1179 1.69431 15.9453 1.62514H15.8984L15.9453 1.60952C15.0737 1.26029 14.1713 0.993503 13.2499 0.812643C13.1694 0.796725 13.0865 0.796829 13.006 0.81295C12.9255 0.829072 12.849 0.860895 12.7808 0.906601C12.7126 0.952308 12.6541 1.011 12.6086 1.07933C12.5631 1.14766 12.5315 1.22429 12.5156 1.30483C12.4985 1.3849 12.4975 1.46757 12.5127 1.54803C12.5278 1.62848 12.5589 1.70512 12.604 1.77346C12.649 1.84181 12.7073 1.9005 12.7752 1.94613C12.8432 1.99175 12.9196 2.02339 12.9999 2.03921C13.3515 2.10952 13.6953 2.19546 14.0312 2.28921C14.1549 2.35343 14.2536 2.45718 14.3116 2.58396C14.3696 2.71074 14.3835 2.85326 14.3512 2.98887C14.3189 3.12448 14.2421 3.24539 14.1332 3.33237C14.0242 3.41935 13.8893 3.4674 13.7499 3.46889H13.6874C12.4835 3.15491 11.2441 2.99737 9.99994 3.00014C8.78498 2.99652 7.57458 3.14881 6.39838 3.45327C6.24871 3.49276 6.08971 3.4753 5.95217 3.40428C5.81463 3.33326 5.70834 3.21373 5.65389 3.06883C5.59943 2.92394 5.60068 2.76399 5.65739 2.61996C5.71411 2.47593 5.82225 2.35807 5.96088 2.28921H5.96869C6.30463 2.19546 6.64838 2.10952 6.99994 2.03921C7.08049 2.02332 7.15711 1.99172 7.22544 1.94621C7.29377 1.9007 7.35247 1.84218 7.39817 1.77398C7.44388 1.70579 7.4757 1.62925 7.49183 1.54875C7.50795 1.46826 7.50805 1.38537 7.49213 1.30483C7.45818 1.14317 7.36236 1.0012 7.22514 0.909235C7.08793 0.81727 6.92019 0.782605 6.75776 0.812643C5.83309 0.997548 4.92801 1.2696 4.05463 1.62514C3.88196 1.69431 3.72741 1.80209 3.60283 1.94021C3.47825 2.07834 3.38693 2.24315 3.33588 2.42202L0.679632 11.2658C0.610723 11.497 0.610201 11.7432 0.678128 11.9747C0.746056 12.2062 0.87953 12.4131 1.06244 12.5705C1.13431 12.6397 1.20995 12.7049 1.28901 12.7658H1.29682C2.56244 13.797 4.22651 14.5861 6.10151 15.0392C6.14949 15.0546 6.19956 15.0625 6.24994 15.0626C6.40447 15.0651 6.55442 15.0102 6.67085 14.9086C6.78728 14.8069 6.86193 14.6658 6.88038 14.5123C6.89883 14.3589 6.85978 14.2041 6.77076 14.0777C6.68175 13.9514 6.54908 13.8625 6.39838 13.8283C5.55545 13.6246 4.73595 13.334 3.95307 12.9611C3.84592 12.8607 3.77754 12.7258 3.75993 12.58C3.74231 12.4342 3.77659 12.2869 3.85675 12.1638C3.93691 12.0408 4.05782 11.9499 4.19829 11.9071C4.33876 11.8643 4.48981 11.8724 4.62494 11.9298C6.10932 12.5861 7.97651 13.0001 9.99994 13.0001C12.0234 13.0001 13.8906 12.5861 15.3749 11.9298C15.5101 11.8724 15.6611 11.8643 15.8016 11.9071C15.9421 11.9499 16.063 12.0408 16.1431 12.1638C16.2233 12.2869 16.2576 12.4342 16.24 12.58C16.2224 12.7258 16.154 12.8607 16.0468 12.9611C15.2639 13.334 14.4444 13.6246 13.6015 13.8283C13.4508 13.8625 13.3181 13.9514 13.2291 14.0777C13.1401 14.2041 13.1011 14.3589 13.1195 14.5123C13.138 14.6658 13.2126 14.8069 13.329 14.9086C13.4455 15.0102 13.5954 15.0651 13.7499 15.0626C13.8003 15.0625 13.8504 15.0546 13.8984 15.0392C15.7734 14.5861 17.4374 13.797 18.7031 12.7658H18.7109C18.7899 12.7049 18.8656 12.6397 18.9374 12.5705C19.1204 12.4131 19.2538 12.2062 19.3218 11.9747C19.3897 11.7432 19.3892 11.497 19.3203 11.2658ZM7.49994 10.1876C7.31452 10.1876 7.13327 10.1327 6.9791 10.0296C6.82493 9.92663 6.70476 9.78021 6.63381 9.60891C6.56285 9.4376 6.54428 9.2491 6.58046 9.06725C6.61663 8.88539 6.70592 8.71834 6.83703 8.58723C6.96814 8.45612 7.13519 8.36683 7.31705 8.33066C7.4989 8.29448 7.6874 8.31305 7.85871 8.38401C8.03002 8.45496 8.17643 8.57512 8.27945 8.7293C8.38246 8.88347 8.43744 9.06472 8.43744 9.25014C8.43744 9.49878 8.33867 9.73724 8.16286 9.91305C7.98704 10.0889 7.74858 10.1876 7.49994 10.1876ZM12.4999 10.1876C12.3145 10.1876 12.1333 10.1327 11.9791 10.0296C11.8249 9.92663 11.7048 9.78021 11.6338 9.60891C11.5629 9.4376 11.5443 9.2491 11.5805 9.06725C11.6166 8.88539 11.7059 8.71834 11.837 8.58723C11.9681 8.45612 12.1352 8.36683 12.317 8.33066C12.4989 8.29448 12.6874 8.31305 12.8587 8.38401C13.03 8.45496 13.1764 8.57512 13.2794 8.7293C13.3825 8.88347 13.4374 9.06472 13.4374 9.25014C13.4374 9.49878 13.3387 9.73724 13.1629 9.91305C12.987 10.0889 12.7486 10.1876 12.4999 10.1876Z"
    fill="white"></path>
</svg>