<svg xmlns="http://www.w3.org/2000/svg" width="23" height="24" viewBox="0 0 23 24" fill="none">
<path d="M21.7375 16.7996C22.4896 15.2565 22.8787 13.5617 22.875 11.845C22.8716 9.33937 22.0426 6.90472 20.5162 4.91769C18.9899 2.93066 16.8513 1.50202 14.4312 0.852774H14.3765C12.6021 0.385586 10.7408 0.355476 8.95208 0.765024C7.16341 1.17457 5.50065 2.01157 4.10624 3.20434L3.96405 3.33559C2.23261 4.86368 1.00782 6.88302 0.452794 9.12464C-0.102233 11.3663 0.0388486 13.7238 0.857249 15.8832C1.67565 18.0427 3.13252 19.9015 5.03384 21.2122C6.93516 22.5229 9.19067 23.2233 11.5 23.22H11.7625C13.8279 23.1689 15.8407 22.5579 17.586 21.4522C19.3312 20.3465 20.7435 18.7875 21.6719 16.9418L21.7375 16.7996ZM21.125 11.845C21.123 12.9909 20.9194 14.1275 20.5234 15.2028L15.4484 12.0856C15.2391 11.954 15.0042 11.8683 14.7594 11.834L12.2656 11.5059C11.9453 11.4645 11.6198 11.512 11.3246 11.6431C11.0295 11.7743 10.7761 11.9841 10.5922 12.2496H9.65155L9.23592 11.3856C9.11949 11.147 8.95092 10.9376 8.74267 10.7729C8.53442 10.6082 8.29182 10.4924 8.0328 10.434L7.31092 10.2809L7.58436 9.63559C7.65248 9.47718 7.76534 9.3421 7.90911 9.2469C8.05288 9.1517 8.22131 9.10052 8.39373 9.09965H10.1547C10.4493 9.09833 10.7388 9.02312 10.9969 8.8809L12.3312 8.13715C12.449 8.07332 12.5591 7.99625 12.6594 7.90746L15.6015 5.23871C15.8577 5.01416 16.0412 4.71851 16.1288 4.38937C16.2165 4.06023 16.2043 3.71245 16.0937 3.39027C17.6153 4.21668 18.8858 5.43823 19.7712 6.9262C20.6567 8.41417 21.1244 10.1135 21.125 11.845ZM1.87499 11.845C1.87249 10.3357 2.22862 8.84743 2.91405 7.50277L4.05155 10.5543C4.15557 10.8277 4.32603 11.0708 4.54754 11.2617C4.76905 11.4527 5.03463 11.5855 5.3203 11.6481L5.92186 11.7793H5.9328L7.2453 12.0637C7.37521 12.09 7.49722 12.1462 7.60163 12.2278C7.70605 12.3094 7.79002 12.4143 7.84686 12.534L8.07655 13.0153C8.22127 13.3098 8.44542 13.5581 8.72372 13.732C9.00201 13.9059 9.32337 13.9986 9.65155 13.9996H9.7828L8.94061 15.8809C8.7983 16.193 8.75144 16.5401 8.80593 16.8788C8.86042 17.2174 9.01383 17.5324 9.24686 17.784L11.0078 19.6871C11.0985 19.7885 11.1652 19.909 11.2031 20.0396C11.2409 20.1702 11.2489 20.3077 11.2265 20.4418L11.0297 21.459C8.56216 21.3356 6.23631 20.2692 4.5326 18.48C2.8289 16.6908 1.87751 14.3156 1.87499 11.845Z" fill="white"/>
</svg>