<svg
width="20"
height="12"
viewBox="0 0 20 12"
fill="none"
xmlns="http://www.w3.org/2000/svg"
>
<path
    d="M10.625 6C10.625 8.92969 8.38281 11.3125 5.625 11.3125C2.86719 11.3125 0.625 8.92969 0.625 6C0.625 3.07031 2.86719 0.6875 5.625 0.6875C8.38281 0.6875 10.625 3.07031 10.625 6ZM14.375 1C13.9297 1 13.0938 1.21875 12.4766 2.66406C12.0859 3.5625 11.875 4.75 11.875 6C11.875 7.25 12.0859 8.4375 12.4766 9.33594C13.0938 10.7812 13.9297 11 14.375 11C14.8203 11 15.6562 10.7812 16.2734 9.33594C16.6641 8.4375 16.875 7.25 16.875 6C16.875 4.75 16.6641 3.5625 16.2734 2.66406C15.6562 1.21875 14.8203 1 14.375 1ZM18.75 1C18.5842 1 18.4253 1.06585 18.3081 1.18306C18.1908 1.30027 18.125 1.45924 18.125 1.625V10.375C18.125 10.5408 18.1908 10.6997 18.3081 10.8169C18.4253 10.9342 18.5842 11 18.75 11C18.9158 11 19.0747 10.9342 19.1919 10.8169C19.3092 10.6997 19.375 10.5408 19.375 10.375V1.625C19.375 1.45924 19.3092 1.30027 19.1919 1.18306C19.0747 1.06585 18.9158 1 18.75 1Z"
    fill="white"></path>
</svg>