<svg
width="18"
height="16"
viewBox="0 0 18 16"
fill="none"
xmlns="http://www.w3.org/2000/svg"
>
<path
    d="M17.1953 3.07039L14.8359 5.42195C14.3672 10.8829 9.75778 15.1251 4.24996 15.1251C3.11715 15.1251 2.17965 14.9454 1.46871 14.5938C0.898402 14.3048 0.664026 14.0001 0.601526 13.9063C0.549815 13.8278 0.516494 13.7386 0.504045 13.6454C0.491596 13.5522 0.50034 13.4573 0.529626 13.368C0.558912 13.2786 0.607985 13.197 0.673189 13.1293C0.738392 13.0615 0.818046 13.0093 0.906214 12.9766C0.921839 12.9688 2.76559 12.2657 3.9609 10.9141C3.21961 10.3863 2.56805 9.74268 2.03121 9.00789C0.960901 7.55476 -0.171911 5.03132 0.507776 1.2657C0.529143 1.15375 0.580346 1.04965 0.655978 0.964392C0.731609 0.879135 0.828862 0.815885 0.937464 0.781323C1.04641 0.745649 1.16307 0.740628 1.27468 0.766808C1.38629 0.792988 1.48856 0.849362 1.57028 0.929761C1.59371 0.961011 4.19528 3.52351 7.37496 4.35164V3.87507C7.37803 3.37954 7.47868 2.88945 7.67115 2.43281C7.86362 1.97617 8.14416 1.56191 8.49673 1.21369C8.8493 0.865472 9.26702 0.590106 9.72601 0.40332C10.185 0.216534 10.6763 0.121986 11.1718 0.125073C11.8222 0.134349 12.4591 0.311934 13.0205 0.640526C13.5818 0.969119 14.0485 1.43751 14.375 2.00007H16.75C16.8734 1.99969 16.9941 2.03583 17.097 2.10396C17.1999 2.17208 17.2803 2.26913 17.3281 2.38289C17.3731 2.49833 17.3845 2.62416 17.361 2.74583C17.3375 2.86749 17.2801 2.98002 17.1953 3.07039Z"
    fill="white"></path>
</svg>