<svg
width="18"
height="18"
viewBox="0 0 18 18"
fill="none"
xmlns="http://www.w3.org/2000/svg"
>
<path
    d="M17.789 1.77364L13.6953 16.2971C13.627 16.543 13.4846 16.7619 13.2875 16.9241C13.0904 17.0862 12.8482 17.1837 12.5937 17.2033H12.4843C12.2489 17.2028 12.0184 17.1358 11.8194 17.01C11.6203 16.8842 11.4609 16.7048 11.3593 16.4924L8.57028 10.6018C8.54289 10.5426 8.53421 10.4765 8.54538 10.4123C8.55654 10.3481 8.58703 10.2888 8.63278 10.2424L12.6406 6.23458C12.7033 6.17773 12.7539 6.10872 12.7891 6.03175C12.8244 5.95478 12.8437 5.87145 12.8457 5.78681C12.8478 5.70216 12.8327 5.61798 12.8013 5.53937C12.7698 5.46076 12.7227 5.38935 12.6629 5.32948C12.603 5.26961 12.5316 5.22253 12.453 5.1911C12.3744 5.15966 12.2902 5.14453 12.2055 5.14661C12.1209 5.14869 12.0376 5.16795 11.9606 5.20322C11.8836 5.23849 11.8146 5.28902 11.7578 5.35176L7.74996 9.36739C7.70354 9.41313 7.64426 9.44362 7.58004 9.45479C7.51583 9.46596 7.44974 9.45727 7.39059 9.42989L1.53122 6.65645C1.30188 6.54813 1.10935 6.37495 0.977432 6.15833C0.845516 5.94171 0.780013 5.69117 0.789028 5.4377C0.802856 5.17673 0.89864 4.92677 1.06275 4.72338C1.22686 4.52 1.45094 4.37356 1.70309 4.30489L16.2578 0.203327C16.5123 0.130627 16.7834 0.140629 17.0319 0.231893C17.2805 0.323156 17.4936 0.490966 17.6406 0.71114C17.7392 0.8676 17.8035 1.04325 17.8291 1.22643C17.8547 1.40961 17.841 1.59614 17.789 1.77364Z"
    fill="white"></path>
</svg>

   